<svg viewBox="0 0 86 85" fill="none" xmlns="http://www.w3.org/2000/svg">
<circle cx="9.40067" cy="9.40067" r="9.40067" fill="#C4C1D5"/>
<circle cx="75.937" cy="9.40067" r="9.40067" fill="#C4C1D5"/>
<circle cx="75.937" cy="75.5993" r="9.40067" fill="#C4C1D5"/>
<circle cx="9.40067" cy="75.5993" r="9.40067" fill="#C4C1D5"/>
<rect x="22.3397" y="5.96906" width="40.9712" height="4.69136" rx="2.34568" fill="#C4C1D5"/>
<rect x="11.0803" y="21.9197" width="40.9712" height="4.69136" rx="2.34568" transform="rotate(90 11.0803 21.9197)" fill="#C4C1D5"/>
<rect x="22.3397" y="75.4012" width="40.9712" height="4.69136" rx="2.34568" fill="#C4C1D5"/>
<rect x="79.5743" y="21.9197" width="40.9712" height="4.69136" rx="2.34568" transform="rotate(90 79.5743 21.9197)" fill="#C4C1D5"/>
<path d="M41.1305 58.0416V42.5249L28.7217 37.1519V50.9955L30.7052 50.1331L30.725 50.1245L30.7455 50.1176L30.769 50.1097L30.7699 50.1094C31.2126 49.9619 31.7104 49.9619 32.1529 50.1092L32.153 50.1092C32.5658 50.2468 33.0263 50.5517 33.2594 51.0934C33.5571 51.6177 33.5437 52.1847 33.3271 52.661L41.1305 58.0416ZM41.1305 58.0416L31.7152 53.9757L32.3161 53.7227L32.3599 53.7043L32.3995 53.6779L32.4439 53.6483L32.4439 53.6483C32.7603 53.4373 33.1215 53.1135 33.327 52.6612L41.1305 58.0416ZM26.028 32.468L26.0145 32.4737L26.0013 32.4803L25.9865 32.4877C25.9865 32.4877 25.9865 32.4877 25.9865 32.4877C25.7218 32.6201 25.4559 32.8167 25.2432 33.0647L25.243 33.065C25.0416 33.3002 24.8002 33.6872 24.8002 34.1866V52.6786L20.8188 54.4767C20.2319 54.6978 19.9048 55.1814 19.761 55.6128C19.6134 56.0555 19.6134 56.5533 19.761 56.996C19.9696 57.622 20.4726 57.968 20.9193 58.1169C21.3621 58.2647 21.8599 58.2647 22.3025 58.1171C22.3025 58.1171 22.3026 58.1171 22.3026 58.1171L22.3237 58.11L22.3426 58.1038L22.361 58.096L26.9061 56.1677L42.2481 62.8257C42.5373 63.0205 42.8555 63.0782 43.11 63.0782C43.423 63.0782 43.7238 62.9946 43.9857 62.8684L59.4261 56.1677L63.9713 58.096L63.9896 58.1037L64.0085 58.11L64.0297 58.1171C64.9649 58.4288 65.901 58.0686 66.4474 57.2493L66.4478 57.2488L66.542 57.1071L66.6257 56.9813V56.8302V56.6601C66.6257 55.9672 66.3806 55.1296 65.5538 54.5782L65.5533 54.5779L65.5149 54.5523L65.4809 54.5298L65.4437 54.513L61.3822 52.6786V34.1866C61.3822 33.8585 61.2984 33.4819 61.0533 33.1388C60.8164 32.807 60.4821 32.5811 60.1044 32.4466L45.0518 25.9952V20.253C45.0518 19.6824 44.7772 19.2014 44.46 18.8842C44.143 18.567 43.6618 18.2922 43.0912 18.2922C42.5206 18.2922 42.0394 18.567 41.7224 18.8842C41.4052 19.2014 41.1305 19.6826 41.1305 20.253V25.9952L26.028 32.468ZM25.3002 34.1866V53.0014L26.2102 32.9349C25.9995 33.0402 25.7882 33.1972 25.6228 33.3901C25.4629 33.5768 25.3002 33.8521 25.3002 34.1866ZM43.2411 39.1735L31.9648 34.3232L41.1305 30.2732V30.7408C41.1305 31.3114 41.4052 31.7925 41.7224 32.1096L41.7225 32.1098C42.0395 32.4266 42.5205 32.7015 43.0912 32.7015C43.6619 32.7015 44.1429 32.4266 44.4599 32.1098L44.46 32.1096C44.7772 31.7925 45.0518 31.3114 45.0518 30.7408V30.2583L54.4913 34.3344L43.2411 39.1735ZM45.0518 42.5249L57.4607 37.1519V50.9955L55.4772 50.1331L55.4574 50.1245L55.4369 50.1176L55.4134 50.1098L55.4124 50.1094C54.4775 49.7978 53.5412 50.1572 52.9946 50.9771L52.9532 51.0392L52.9158 51.0951L52.8945 51.1589L52.8707 51.2303C52.5591 52.1654 52.9189 53.1018 53.7385 53.6483L54.0159 53.2323L53.7385 53.6483L53.7829 53.6779L53.8224 53.7043L53.8663 53.7227L54.4672 53.9757L45.0518 58.0416V42.5249Z" fill="#C4C1D5" stroke="#C4C1D4"/>
</svg>

