<svg viewBox="0 0 84 60" fill="none" xmlns="http://www.w3.org/2000/svg">
<path fill-rule="evenodd" clip-rule="evenodd" d="M65.0569 11.5677C65.0569 11.0372 65.487 10.6071 66.0176 10.6071L80.8296 10.6071C81.9342 10.6071 82.8296 11.5025 82.8296 12.6071V55.1715C82.8296 56.9533 80.6753 57.8457 79.4154 56.5857L74.3715 51.5417C73.9964 51.1666 73.4877 50.9559 72.9572 50.9559H21.4242C20.3197 50.9559 19.4242 50.0605 19.4242 48.9559V42.3097C19.4242 41.7792 19.8543 41.349 20.3849 41.349C20.9155 41.349 21.3456 41.7792 21.3456 42.3097V47.0345C21.3456 48.1391 22.241 49.0345 23.3456 49.0345H73.7527C74.2831 49.0345 74.7918 49.2452 75.1669 49.6203L77.494 51.9473C78.754 53.2072 80.9082 52.3149 80.9082 50.5331V14.5284C80.9082 13.4239 80.0128 12.5284 78.9082 12.5284H66.0176C65.487 12.5284 65.0569 12.0983 65.0569 11.5677Z" fill="#444D57" stroke="#444D57"/>
<path fill-rule="evenodd" clip-rule="evenodd" d="M1.17053 3C1.17053 1.89543 2.06596 1 3.17053 1H62.5759C63.6805 1 64.5759 1.89543 64.5759 3V39.3489C64.5759 40.4534 63.6805 41.3489 62.5759 41.3489H14.5559C14.1611 41.3489 13.775 41.4657 13.4465 41.6848L4.27993 47.7958C2.95082 48.6819 1.17053 47.7291 1.17053 46.1317V3ZM5.09191 2.92137C3.98734 2.92137 3.09191 3.8168 3.09191 4.92137V42.5416C3.09191 44.139 4.8722 45.0918 6.20131 44.2057L12.8647 39.7634C13.1933 39.5444 13.5793 39.4275 13.9741 39.4275H60.6545C61.7591 39.4275 62.6545 38.5321 62.6545 37.4275V4.92138C62.6545 3.81681 61.7591 2.92137 60.6545 2.92137H5.09191Z" fill="white" stroke="white"/>
<path fill-rule="evenodd" clip-rule="evenodd" d="M12.6985 13.4886C12.6985 12.9581 13.1286 12.528 13.6592 12.528H52.0867C52.6172 12.528 53.0473 12.9581 53.0473 13.4886C53.0473 14.0192 52.6172 14.4493 52.0867 14.4493H13.6592C13.1286 14.4493 12.6985 14.0192 12.6985 13.4886Z" fill="white" stroke="white"/>
<path fill-rule="evenodd" clip-rule="evenodd" d="M12.6985 21.1746C12.6985 20.644 13.1286 20.2139 13.6592 20.2139H52.0867C52.6172 20.2139 53.0473 20.644 53.0473 21.1746C53.0473 21.7052 52.6172 22.1353 52.0867 22.1353H13.6592C13.1286 22.1353 12.6985 21.7052 12.6985 21.1746Z" fill="white" stroke="white"/>
<path fill-rule="evenodd" clip-rule="evenodd" d="M12.6985 28.8597C12.6985 28.3291 13.1286 27.899 13.6592 27.899H36.7157C37.2462 27.899 37.6763 28.3291 37.6763 28.8597C37.6763 29.3902 37.2462 29.8204 36.7157 29.8204H13.6592C13.1286 29.8204 12.6985 29.3902 12.6985 28.8597Z" fill="white" stroke="white"/>
</svg>
