<svg viewBox="0 0 95 85" fill="none" xmlns="http://www.w3.org/2000/svg">
<mask id="mask0_1_86" style="mask-type:luminance" maskUnits="userSpaceOnUse" x="0" y="0" width="95" height="85">
<path d="M92.9727 37.9488L73.6381 4.32272C72.1587 1.69909 69.401 0.0545593 66.3895 0H27.7129C24.7009 0.0530745 21.9426 1.69801 20.4642 4.32272L1.12222 37.8606C-0.374074 40.4643 -0.374074 43.667 1.12222 46.2708L20.4569 80.088C21.9201 82.7489 24.6711 84.4481 27.7055 84.5651H66.3821C69.4164 84.461 72.1723 82.7689 73.6381 80.1101L92.9727 46.484C94.4794 43.8384 94.4794 40.5944 92.9727 37.9488Z" fill="#C4C1D4"/>
</mask>
<g mask="url(#mask0_1_86)">
<path d="M92.9727 37.9488L73.6381 4.32272C72.1587 1.69909 69.401 0.0545593 66.3895 0H27.7129C24.7009 0.0530745 21.9426 1.69801 20.4642 4.32272L1.12222 37.8606C-0.374074 40.4643 -0.374074 43.667 1.12222 46.2708L20.4569 80.088C21.9201 82.7489 24.6711 84.4481 27.7055 84.5651H66.3821C69.4164 84.461 72.1723 82.7689 73.6381 80.1101L92.9727 46.484C94.4794 43.8384 94.4794 40.5944 92.9727 37.9488Z" fill="#C4C1D4"/>
</g>
<mask id="mask1_1_86" style="mask-type:luminance" maskUnits="userSpaceOnUse" x="0" y="0" width="95" height="85">
<path d="M92.9727 37.9488L73.6381 4.32272C72.1587 1.69909 69.401 0.0545593 66.3895 0H27.7129C24.7009 0.0530745 21.9426 1.69801 20.4642 4.32272L1.12222 37.8606C-0.374074 40.4643 -0.374074 43.667 1.12222 46.2708L20.4569 80.088C21.9201 82.7489 24.6711 84.4481 27.7055 84.5651H66.3821C69.4164 84.461 72.1723 82.7689 73.6381 80.1101L92.9727 46.484C94.4794 43.8384 94.4794 40.5944 92.9727 37.9488Z" fill="white"/>
</mask>
<g mask="url(#mask1_1_86)">
<path d="M32.6524 60.8281L36.5265 56.954L30.7191 51.1466V33.0725L36.5265 27.265L32.6524 23.3909L24.897 31.1464V53.0726L32.6524 60.8281Z" fill="#0F1014"/>
</g>
<mask id="mask2_1_86" style="mask-type:luminance" maskUnits="userSpaceOnUse" x="0" y="0" width="95" height="85">
<path d="M92.9727 37.9488L73.6381 4.32272C72.1587 1.69909 69.401 0.0545593 66.3895 0H27.7129C24.7009 0.0530745 21.9426 1.69801 20.4642 4.32272L1.12222 37.8606C-0.374074 40.4643 -0.374074 43.667 1.12222 46.2708L20.4569 80.088C21.9201 82.7489 24.6711 84.4481 27.7055 84.5651H66.3821C69.4164 84.461 72.1723 82.7689 73.6381 80.1101L92.9727 46.484C94.4794 43.8384 94.4794 40.5944 92.9727 37.9488Z" fill="white"/>
</mask>
<g mask="url(#mask2_1_86)">
<path d="M38.6503 44.8556C40.1671 44.8556 41.3966 43.6261 41.3966 42.1094C41.3966 40.5926 40.1671 39.3631 38.6503 39.3631C37.1336 39.3631 35.9041 40.5926 35.9041 42.1094C35.9041 43.6261 37.1336 44.8556 38.6503 44.8556Z" fill="#0F1014"/>
</g>
<mask id="mask3_1_86" style="mask-type:luminance" maskUnits="userSpaceOnUse" x="0" y="0" width="95" height="85">
<path d="M92.9727 37.9488L73.6381 4.32272C72.1587 1.69909 69.401 0.0545593 66.3895 0H27.7129C24.7009 0.0530745 21.9426 1.69801 20.4642 4.32272L1.12222 37.8606C-0.374074 40.4643 -0.374074 43.667 1.12222 46.2708L20.4569 80.088C21.9201 82.7489 24.6711 84.4481 27.7055 84.5651H66.3821C69.4164 84.461 72.1723 82.7689 73.6381 80.1101L92.9727 46.484C94.4794 43.8384 94.4794 40.5944 92.9727 37.9488Z" fill="white"/>
</mask>
<g mask="url(#mask3_1_86)">
<path d="M46.8675 44.8556C48.3842 44.8556 49.6137 43.6261 49.6137 42.1094C49.6137 40.5926 48.3842 39.3631 46.8675 39.3631C45.3507 39.3631 44.1212 40.5926 44.1212 42.1094C44.1212 43.6261 45.3507 44.8556 46.8675 44.8556Z" fill="#0F1014"/>
</g>
<mask id="mask4_1_86" style="mask-type:luminance" maskUnits="userSpaceOnUse" x="0" y="0" width="95" height="85">
<path d="M92.9727 37.9488L73.6381 4.32272C72.1587 1.69909 69.401 0.0545593 66.3895 0H27.7129C24.7009 0.0530745 21.9426 1.69801 20.4642 4.32272L1.12222 37.8606C-0.374074 40.4643 -0.374074 43.667 1.12222 46.2708L20.4569 80.088C21.9201 82.7489 24.6711 84.4481 27.7055 84.5651H66.3821C69.4164 84.461 72.1723 82.7689 73.6381 80.1101L92.9727 46.484C94.4794 43.8384 94.4794 40.5944 92.9727 37.9488Z" fill="white"/>
</mask>
<g mask="url(#mask4_1_86)">
<path d="M55.0841 44.8556C56.6009 44.8556 57.8304 43.6261 57.8304 42.1094C57.8304 40.5926 56.6009 39.3631 55.0841 39.3631C53.5674 39.3631 52.3379 40.5926 52.3379 42.1094C52.3379 43.6261 53.5674 44.8556 55.0841 44.8556Z" fill="#0F1014"/>
</g>
<mask id="mask5_1_86" style="mask-type:luminance" maskUnits="userSpaceOnUse" x="0" y="0" width="95" height="85">
<path d="M92.9727 37.9488L73.6381 4.32272C72.1587 1.69909 69.401 0.0545593 66.3895 0H27.7129C24.7009 0.0530745 21.9426 1.69801 20.4642 4.32272L1.12222 37.8606C-0.374074 40.4643 -0.374074 43.667 1.12222 46.2708L20.4569 80.088C21.9201 82.7489 24.6711 84.4481 27.7055 84.5651H66.3821C69.4164 84.461 72.1723 82.7689 73.6381 80.1101L92.9727 46.484C94.4794 43.8384 94.4794 40.5944 92.9727 37.9488Z" fill="white"/>
</mask>
<g mask="url(#mask5_1_86)">
<path d="M61.0452 23.3909L57.1711 27.265L62.9785 33.0725V51.1466L57.1711 56.954L61.0452 60.8281L68.8006 53.0726V31.1464L61.0452 23.3909Z" fill="#0F1014"/>
</g>
<path opacity="0.07" d="M68.8006 31.1464L66.1349 34.0538L66.7354 51.3297L64.2088 54.9914L62.7441 53.5267H64.0916V47.5362L57.6251 41.0696L52.7374 43.5126L36.5264 27.265L28.7196 31.4467L27.753 39.5463L30.4919 54.3689L34.4612 58.2576L32.6523 60.8281L56.2689 85.0001H66.1349C69.1575 84.8964 72.4311 82.9155 73.8913 80.2669L89.9839 52.3288L68.8006 31.1464Z" fill="#020202"/>
</svg>
