<svg viewBox="0 0 46 16" fill="none" xmlns="http://www.w3.org/2000/svg">
<path d="M0.9375 15V0.454529H11.4205V3.63635H4.88636V6.13635H10.8807V9.31817H4.88636V11.8182H11.392V15H0.9375Z" fill="url(#paint0_linear_622_34)"/>
<path d="M13.2357 15V4.09089H17.0425V6.16476H17.1562C17.355 5.39771 17.6699 4.83663 18.1008 4.48152C18.5364 4.1264 19.0454 3.94885 19.6278 3.94885C19.7982 3.94885 19.9663 3.96305 20.132 3.99146C20.3025 4.01514 20.4658 4.05065 20.6221 4.098V7.44317C20.428 7.37688 20.1888 7.32716 19.9048 7.29402C19.6207 7.26087 19.3768 7.2443 19.1732 7.2443C18.7897 7.2443 18.4441 7.3319 18.1363 7.50709C17.8333 7.67754 17.5942 7.91902 17.419 8.23152C17.2438 8.53928 17.1562 8.9015 17.1562 9.31817V15H13.2357Z" fill="url(#paint1_linear_622_34)"/>
<path d="M21.6508 15V0.454529H27.9292C29.0087 0.454529 29.9533 0.651025 30.763 1.04402C31.5727 1.43701 32.2024 2.00282 32.6522 2.74146C33.102 3.4801 33.3269 4.36551 33.3269 5.39771C33.3269 6.43938 33.0949 7.31769 32.6309 8.03265C32.1716 8.74762 31.5253 9.28739 30.692 9.65197C29.8634 10.0166 28.8951 10.1988 27.7871 10.1988H24.0371V7.13067H26.9917C27.4557 7.13067 27.8511 7.07385 28.1778 6.96021C28.5092 6.84184 28.7625 6.65481 28.9377 6.39913C29.1176 6.14345 29.2076 5.80964 29.2076 5.39771C29.2076 4.98104 29.1176 4.6425 28.9377 4.38209C28.7625 4.11693 28.5092 3.92281 28.1778 3.7997C27.8511 3.67186 27.4557 3.60794 26.9917 3.60794H25.5996V15H21.6508ZM30.1735 8.32385L33.8099 15H29.5201L25.969 8.32385H30.1735Z" fill="url(#paint2_linear_622_34)"/>
<path d="M39.8599 15.1988C38.6951 15.1988 37.6913 14.9763 36.8485 14.5312C36.0104 14.0814 35.3641 13.4375 34.9096 12.5994C34.4598 11.7566 34.2349 10.7481 34.2349 9.57385C34.2349 8.44695 34.4621 7.4621 34.9167 6.6193C35.3712 5.7765 36.0128 5.12072 36.8414 4.65197C37.67 4.18322 38.6478 3.94885 39.7746 3.94885C40.5985 3.94885 41.3442 4.07669 42.0119 4.33237C42.6795 4.58805 43.25 4.95974 43.7235 5.44743C44.197 5.93038 44.5616 6.5175 44.8173 7.20879C45.0729 7.90008 45.2008 8.67896 45.2008 9.54544V10.4545H35.4565V8.29544H41.5928C41.5881 7.98294 41.5076 7.70832 41.3514 7.47157C41.1998 7.2301 40.9939 7.04307 40.7335 6.91049C40.4778 6.77318 40.1866 6.70453 39.8599 6.70453C39.5426 6.70453 39.2514 6.77318 38.9863 6.91049C38.7211 7.04307 38.5081 7.22773 38.3471 7.46447C38.1908 7.70121 38.108 7.9782 38.0985 8.29544V10.625C38.0985 10.9754 38.1719 11.2879 38.3187 11.5625C38.4655 11.8371 38.6762 12.0525 38.9508 12.2088C39.2254 12.365 39.5568 12.4432 39.9451 12.4432C40.215 12.4432 40.4612 12.4053 40.6837 12.3295C40.911 12.2538 41.1051 12.1449 41.2661 12.0028C41.4271 11.856 41.5455 11.6809 41.6212 11.4773H45.2008C45.0777 12.2348 44.7865 12.893 44.3272 13.4517C43.8679 14.0057 43.2595 14.4365 42.5019 14.7443C41.7491 15.0473 40.8684 15.1988 39.8599 15.1988Z" fill="url(#paint3_linear_622_34)"/>
<defs>
<linearGradient id="paint0_linear_622_34" x1="17.3267" y1="-4" x2="42.2277" y2="-1.91969" gradientUnits="userSpaceOnUse">
<stop stop-color="#F42A8B"/>
<stop offset="1" stop-color="#9D4CCE"/>
</linearGradient>
<linearGradient id="paint1_linear_622_34" x1="17.3267" y1="-4" x2="42.2277" y2="-1.91969" gradientUnits="userSpaceOnUse">
<stop stop-color="#F42A8B"/>
<stop offset="1" stop-color="#9D4CCE"/>
</linearGradient>
<linearGradient id="paint2_linear_622_34" x1="17.3267" y1="-4" x2="42.2277" y2="-1.91969" gradientUnits="userSpaceOnUse">
<stop stop-color="#F42A8B"/>
<stop offset="1" stop-color="#9D4CCE"/>
</linearGradient>
<linearGradient id="paint3_linear_622_34" x1="17.3267" y1="-4" x2="42.2277" y2="-1.91969" gradientUnits="userSpaceOnUse">
<stop stop-color="#F42A8B"/>
<stop offset="1" stop-color="#9D4CCE"/>
</linearGradient>
</defs>
</svg>
