<svg width="400" height="400" viewBox="0 0 400 400" fill="none" xmlns="http://www.w3.org/2000/svg">
<path d="M332.696 175.808H338.696V169.808V128.954V122.954H332.696H318.469C311.913 122.954 305.545 124.521 299.42 127.546C293.293 130.573 287.836 134.861 283.038 140.309L282.991 140.364L282.944 140.419C281.781 141.806 280.675 143.254 279.624 144.763V129.238V123.238H273.624H226.305H220.305V129.238V270.808V276.808H226.305H273.933H279.933V270.808V203.853C279.933 198.245 280.33 193.646 281.056 189.983L281.061 189.959L281.066 189.934C281.727 186.445 282.982 183.881 284.641 181.979C286.19 180.203 288.6 178.638 292.315 177.554C296.087 176.453 301.434 175.808 308.572 175.808H332.696Z" stroke="#35FFDB" stroke-width="12"/>
<path d="M141.648 280.772C128.69 280.772 116.985 278.996 106.535 275.442C96.0845 271.889 87.2016 266.769 79.8864 260.08C72.5711 253.183 66.9279 244.718 62.9567 234.686C58.9856 224.654 57 213.158 57 200.2C57 172.611 64.2108 152.232 78.6323 139.065C93.2629 125.688 113.85 119 140.394 119C167.356 119 188.361 125.897 203.41 139.692C218.668 153.277 226.296 173.551 226.296 200.513V212.427L100.265 212.74C100.265 217.756 101.414 222.145 103.713 225.908C106.221 229.67 109.461 232.805 113.432 235.313C117.403 237.612 121.897 239.389 126.913 240.643C131.929 241.897 137.05 242.524 142.275 242.524C152.935 242.524 161.504 240.956 167.983 237.821C174.462 234.686 178.329 230.506 179.583 225.281H223.788C220.026 244.927 211.143 259.14 197.14 267.918C183.136 276.487 164.639 280.772 141.648 280.772ZM100.265 184.21L180.524 184.838C180.524 180.239 179.27 176.268 176.762 172.924C174.253 169.371 171.014 166.445 167.043 164.146C163.072 161.847 158.682 160.175 153.875 159.13C149.277 157.875 144.888 157.248 140.708 157.248C136.11 157.248 131.407 157.771 126.6 158.816C121.792 159.861 117.403 161.533 113.432 163.832C109.461 165.922 106.221 168.744 103.713 172.297C101.414 175.641 100.265 179.612 100.265 184.21Z" fill="#35FFDB"/>
<path d="M312.337 247.082L312.34 247.079C315.393 244.144 318.999 242.69 323.451 242.69C327.902 242.69 331.39 244.139 334.262 247.011C337.133 249.882 338.582 253.371 338.582 257.821C338.582 262.271 337.133 265.76 334.262 268.631L334.226 268.667L334.19 268.704C331.527 271.478 328.097 272.951 323.451 272.951C318.974 272.951 315.366 271.554 312.34 268.792C309.542 265.96 308.09 262.428 308.09 257.821C308.09 253.175 309.563 249.745 312.337 247.082Z" stroke="#F8FAFC" stroke-width="10"/>
</svg>
